
#OPLL_mode 1
#tempo 128


;* 

9 @6 v13 o5 l8 h25,0,5,2
A @6 v11 o5 l8 h15,0,5,2 r8
9A [0[[d4.ef4.e fg4f|e4d4 c2.<a4& a1>]
9A edc4| a1& a1]
9A d1& d1
9A [a2.gf g2b-4>c4 <|a2.gf g1]
9A a1& a1
9A [agfe&e2& e2gf|e4 d2e2 f2g2]
9A ec d1& d1
9A d4.ef4.e fg4fe4d4 c2.<a4& a r1]




#end
